<?xml version="1.0" encoding="utf-8"?>
<!-- Generator: Adobe Illustrator 16.0.0, SVG Export Plug-In . SVG Version: 6.00 Build 0)  -->
<!DOCTYPE svg PUBLIC "-//W3C//DTD SVG 1.1//EN" "http://www.w3.org/Graphics/SVG/1.1/DTD/svg11.dtd">
<svg version="1.1" id="Layer_1" xmlns="http://www.w3.org/2000/svg" xmlns:xlink="http://www.w3.org/1999/xlink" x="0px" y="0px"
	 width="40px" height="56px" viewBox="0 0 40 56" style="enable-background:new 0 0 40 56;" xml:space="preserve">
<g>
	<g>
		<path fill="#F95E4E" d="M19.6,0C10.9,0,3.3,5.7,0.9,13.9C0.3,15.6,0,17.6,0,19.7C0,27.9,3.7,31,6.6,33.5c0.3,0.2,0.5,0.5,0.8,0.7
			c2.4,2,3.8,3.7,4.6,7.3V53c0,1.7,1.3,3,3,3h9.5c1.6,0,2.6-1.2,2.6-3V42.1c1.1-3.5,2.6-5.4,4.4-7c1.6-1.1,3-2.4,4.2-3.8
			c1.7-1.8,2.7-3.7,3.3-6c0.7-2,1-4,1-6.1C40,8.8,30.6,0,19.6,0z M25,53c0,1-0.4,1-0.5,1H15c-0.6,0-0.9-0.6-0.9-1v-1h11v-2H14v-2h11
			L25,53z M37,24.7c-0.5,2-1.5,3.7-2.9,5.3c-1.1,1.4-2.4,2.5-3.9,3.5l-0.1,0.1c-2.2,1.9-3.9,4.2-5.1,8.1l0,4.3H14v-4.5l0-0.2
			c-0.9-4.2-2.7-6.5-5.3-8.7C8.5,32.5,8.2,32.3,8,32c-2.8-2.4-6-5-6-12.4c0-1.9,0.3-3.6,0.8-5.2C5,7.1,11.8,2,19.6,2
			C29.4,2,38,10,38,19.2C38,21,37.7,22.9,37,24.7z M20,18.8c-2.8,0-5.1,2.3-5.1,5.1c0,2.5,1.8,4.5,4.1,5V40h2V28.8
			c2.4-0.5,4.2-2.5,4.2-5C25.2,21,22.9,18.8,20,18.8z M21,26.9V24h-2v2.9c-1.3-0.4-2.3-1.6-2.3-3.1c0-1.8,1.5-3.3,3.3-3.3
			s3.3,1.5,3.3,3.3C23.3,25.3,22.4,26.5,21,26.9z"/>
	</g>
</g>
</svg>
